<svg xmlns="http://www.w3.org/2000/svg" viewBox="0 0 800 500" width="800" height="500" role="img" aria-labelledby="t1">
  <title id="t1">Заказчик и веб-дизайнер обсуждают макет сайта</title>
  <rect width="800" height="500" rx="24" fill="#F5F7FA"/>
  <rect x="560" y="70" width="150" height="90" rx="18" fill="#E8F0FE"/>
  <path d="M560 100 L630 70 L700 100 Z" fill="#E8F0FE"/>
  <path d="M560 120 q70 34 140 0 l0 26 q-70 34 -140 0 Z" fill="#4C78A9"/>
  <text x="635" y="150" text-anchor="middle" font-family="Arial, sans-serif" font-size="14" fill="#1A3A5C">Макет лендинга</text>
  <circle cx="635" cy="168" r="3" fill="#1A3A5C"/>
  <line x1="600" y1="175" x2="670" y2="175" stroke="#B7CBE6" stroke-width="3" stroke-linecap="round"/>
  <line x1="600" y1="185" x2="655" y2="185" stroke="#B7CBE6" stroke-width="3" stroke-linecap="round"/>

  <circle cx="170" cy="300" r="60" fill="#4C78A9"/>
  <rect x="110" y="330" width="120" height="90" rx="20" fill="#4C78A9"/>
  <rect x="125" y="420" width="90" height="120" rx="16" fill="#1A3A5C"/>
  <circle cx="170" cy="245" r="16" fill="#1A3A5C"/>

  <circle cx="620" cy="330" r="55" fill="#E8F0FE"/>
  <rect x="565" y="360" width="110" height="84" rx="20" fill="#E8F0FE"/>
  <rect x="578" y="444" width="84" height="112" rx="16" fill="#4C78A9"/>
  <circle cx="620" cy="280" r="15" fill="#4C78A9"/>

  <path d="M330 240 q-12 -34 6 -60 q18 -26 52 -30 q8 8 -4 24 q-16 22 -10 56 q-18 -6 -24 -10 Z" fill="#1A3A5C"/>
  <path d="M310 260 q10 -26 34 -34 q10 6 2 20 q-10 18 -8 34 q-20 -6 -28 -20 Z" fill="#1A3A5C"/>
  <path d="M470 250 q12 -34 -6 -60 q-18 -26 -52 -30 q-8 8 4 24 q16 22 10 56 q18 -6 24 -10 Z" fill="#4C78A9"/>
  <path d="M490 270 q-10 -26 -34 -34 q-10 6 -2 20 q10 18 8 34 q20 -6 28 -20 Z" fill="#4C78A9"/>

  <rect x="330" y="140" width="140" height="46" rx="23" fill="white" stroke="#4C78A9" stroke-width="2"/>
  <text x="400" y="168" text-anchor="middle" font-family="Arial, sans-serif" font-size="15" font-weight="bold" fill="#1A3A5C">Понятно!</text>

  <rect x="470" y="200" width="150" height="46" rx="23" fill="white" stroke="#1A3A5C" stroke-width="2"/>
  <text x="545" y="228" text-anchor="middle" font-family="Arial, sans-serif" font-size="14" font-weight="bold" fill="#1A3A5C">Покажите ещё раз</text>
</svg>
